# WaveFront *.obj file (generated by Autodesk ATF)

mtllib base_link.mtl

g Base

v 15.000000 10.000000 5.000000
v 15.000000 -10.000000 5.000000
v -15.000000 -10.000000 5.000000
v -15.000000 10.000000 5.000000
v 15.000000 -10.000000 12.500000
v 15.000000 10.000000 12.500000
v -15.000000 10.000000 12.500000
v -15.000000 -10.000000 12.500000
vt -15.000000 -10.000000 0.000000
vt 15.000000 -10.000000 0.000000
vt -15.000000 10.000000 0.000000
vt 15.000000 10.000000 0.000000
vt 15.000000 10.000000 0.000000
vt -15.000000 10.000000 0.000000
vt 15.000000 -10.000000 0.000000
vt -15.000000 -10.000000 0.000000
vt 0.000000 0.000000 0.000000
vt 20.000000 0.000000 0.000000
vt 0.000000 7.500000 0.000000
vt 20.000000 7.500000 0.000000
vt 0.000000 0.000000 0.000000
vt 30.000000 0.000000 0.000000
vt 0.000000 7.500000 0.000000
vt 30.000000 7.500000 0.000000
vt 0.000000 0.000000 0.000000
vt 20.000000 0.000000 0.000000
vt 0.000000 7.500000 0.000000
vt 20.000000 7.500000 0.000000
vt 0.000000 0.000000 0.000000
vt 30.000000 0.000000 0.000000
vt 0.000000 7.500000 0.000000
vt 30.000000 7.500000 0.000000
vn -0.000000 -0.000000 -1.000000
vn -0.000000 -0.000000 -1.000000
vn -0.000000 -0.000000 -1.000000
vn -0.000000 -0.000000 -1.000000
vn 0.000000 0.000000 1.000000
vn 0.000000 0.000000 1.000000
vn 0.000000 0.000000 1.000000
vn 0.000000 0.000000 1.000000
vn 1.000000 0.000000 0.000000
vn 1.000000 0.000000 0.000000
vn 1.000000 0.000000 0.000000
vn 1.000000 0.000000 0.000000
vn 0.000000 1.000000 0.000000
vn 0.000000 1.000000 0.000000
vn 0.000000 1.000000 0.000000
vn 0.000000 1.000000 0.000000
vn -1.000000 0.000000 0.000000
vn -1.000000 0.000000 0.000000
vn -1.000000 0.000000 0.000000
vn -1.000000 0.000000 0.000000
vn 0.000000 -1.000000 0.000000
vn 0.000000 -1.000000 0.000000
vn 0.000000 -1.000000 0.000000
vn 0.000000 -1.000000 0.000000
usemtl Polycarbonate_(Clear)
f 2/1/1 3/2/2 1/3/3
f 1/3/3 3/2/2 4/4/4
f 6/5/5 7/6/6 5/7/7
f 5/7/7 7/6/6 8/8/8
f 2/9/9 1/10/10 5/11/11
f 5/11/11 1/10/10 6/12/12
f 1/13/13 4/14/14 6/15/15
f 6/15/15 4/14/14 7/16/16
f 4/17/17 3/18/18 7/19/19
f 7/19/19 3/18/18 8/20/20
f 3/21/21 2/22/22 8/23/23
f 8/23/23 2/22/22 5/24/24
# 8 vertices
# 24 texture params
# 24 normals
# 12 facets

# 1 groups
